<svg xmlns="http://www.w3.org/2000/svg" viewBox="0 0 32 32" id="Brake">
  <g fill="#00c6ff" class="color101820 svgShape">
    <path d="M17 24a7 7 0 1 1 7-7 7 7 0 0 1-7 7Zm0-12a5 5 0 1 0 5 5 5 5 0 0 0-5-5Z" fill="#000000" class="color000000 svgShape"></path>
    <path d="M14 18.5a1.5 1.5 0 0 0 0-3 1.5 1.5 0 0 0 0 3zm6 0a1.5 1.5 0 0 0 0-3 1.5 1.5 0 0 0 0 3zm-3-3a1.5 1.5 0 0 0 0-3 1.5 1.5 0 0 0 0 3zm0 6a1.5 1.5 0 0 0 0-3 1.5 1.5 0 0 0 0 3z" fill="#000000" class="color000000 svgShape"></path>
    <path d="M11.09 17H3a1 1 0 0 1-1-1A14 14 0 0 1 16 2a1 1 0 0 1 1 1v8.09a1 1 0 0 1-.83 1 5 5 0 0 0-4.09 4.09 1 1 0 0 1-.99.82ZM4 15h6.3a7 7 0 0 1 4.7-4.7V4A12 12 0 0 0 4 15Zm12-3.91Z" fill="#000000" class="color000000 svgShape"></path>
    <path d="M17 30A13 13 0 0 1 4 17c0-.37 0-.72.05-1.08a1 1 0 0 1 1-.92h5.25a7 7 0 0 1 4.7-4.7V5.05a1 1 0 0 1 .92-1C16.28 4 16.63 4 17 4a13 13 0 0 1 0 26ZM6 17A11 11 0 1 0 17 6v5.09a1 1 0 0 1-.83 1 5 5 0 0 0-4.09 4.09 1 1 0 0 1-1 .83Zm10-5.91Z" fill="#000000" class="color000000 svgShape"></path>
  </g>
</svg>
