<svg xmlns="http://www.w3.org/2000/svg" xml:space="preserve" viewBox="0 0 96 96" fill-rule="evenodd" clip-rule="evenodd" stroke-linejoin="round" stroke-miterlimit="2" id="CarRepair">
  <rect id="car-repair--car--repair--service--automotive" width="96" height="96" x="0" y="0" fill="none"></rect>
  <g fill="#00c6ff" class="color000000 svgShape">
    <path d="M11.743,61.342l-6.743,-0c-0.828,-0 -1.5,-0.672 -1.5,-1.5c0,-0 0,-11.647 0,-11.647c-0,-4.085 2.297,-7.799 5.892,-9.485c4.289,-2.012 9.528,-3.314 11.968,-3.855c1.323,-0.287 2.448,-1.155 3.06,-2.363c1.204,-2.372 3.904,-7.564 6.11,-10.817c1.831,-2.701 4.815,-4.316 8.004,-4.316c9.996,-0 29.25,-0 29.25,-0c0.827,-0 1.5,-0.672 1.5,-1.5c-0,-0.828 -0.673,-1.5 -1.5,-1.5c-0,-0 -19.254,-0 -29.25,-0c-4.174,-0 -8.09,2.097 -10.487,5.633c-2.273,3.352 -5.061,8.698 -6.303,11.143c0,-0 0,0 -0,0.001c-0.205,0.403 -0.581,0.693 -1.023,0.788c-0.004,0 -0.008,0.001 -0.011,0.002c-2.567,0.57 -8.077,1.95 -12.592,4.068c-4.631,2.172 -7.618,6.939 -7.618,12.201c0,4.005 0,8.676 0,11.647c0,2.485 2.015,4.5 4.5,4.5c0,-0 6.743,-0 6.743,-0c0.828,-0 1.5,-0.672 1.5,-1.5c-0,-0.828 -0.672,-1.5 -1.5,-1.5Zm31.884,-0l-7.583,-0c-0.828,-0 -1.5,0.672 -1.5,1.5c0,0.828 0.672,1.5 1.5,1.5l7.583,-0c0.828,-0 1.5,-0.672 1.5,-1.5c-0,-0.828 -0.672,-1.5 -1.5,-1.5Z" fill="#00c6ff" class="color000000 svgShape"></path>
    <path d="m22.441 34.591 30.037 0c.828 0 1.5-.672 1.5-1.5 0-.828-.672-1.5-1.5-1.5l-30.037 0c-.828 0-1.5.672-1.5 1.5 0 .828.672 1.5 1.5 1.5ZM23.782 49.303c-7.473 0-13.539 6.066-13.539 13.539 0 7.472 6.066 13.539 13.539 13.539 7.472 0 13.539-6.067 13.539-13.539 0-7.473-6.067-13.539-13.539-13.539Zm0 3c5.816 0 10.539 4.722 10.539 10.539 0 5.816-4.723 10.539-10.539 10.539-5.817 0-10.539-4.723-10.539-10.539 0-5.817 4.722-10.539 10.539-10.539Z" fill="#00c6ff" class="color000000 svgShape"></path>
    <path d="M23.782 56.567c-3.464 0-6.275 2.811-6.275 6.275 0 3.463 2.811 6.274 6.275 6.274 3.463 0 6.274-2.811 6.274-6.274 0-3.464-2.811-6.275-6.274-6.275Zm0 3c1.807 0 3.274 1.467 3.274 3.275 0 1.807-1.467 3.274-3.274 3.274-1.808 0-3.275-1.467-3.275-3.274 0-1.808 1.467-3.275 3.275-3.275ZM57.374 35.76l8.106 8.106c.352.352.507.855.413 1.343l-.84 4.393c-.111.578-.549 1.038-1.121 1.176l-4.86 1.175c-.508.123-1.044-.028-1.413-.398-1.831-1.83-5.37-5.37-7.734-7.711-.898-.898-2.223-1.234-3.448-.871-1.224.362-2.152 1.366-2.418 2.615 0 .001 0 .002-.001.003-1.392 6.602.474 13.756 5.597 18.879 5.585 5.585 13.585 7.299 20.646 5.126.004-.001.007-.002.011-.003.533-.168 1.116-.026 1.511.37 0 0 9.194 9.194 9.194 9.194 3.313 3.312 8.684 3.312 11.997 0l.001-.002c3.313-3.313 3.313-8.684 0-11.996-3.116-3.117-6.921-6.922-8.912-8.937-.002-.002-.004-.004-.007-.006-.405-.405-.54-1.008-.347-1.548.001-.005.003-.009.004-.014 2.51-7.239.875-15.602-4.902-21.38-5.387-5.386-13.02-7.172-19.9-5.372-.003 0-.006.001-.009.002-1.208.324-2.151 1.268-2.475 2.476-.323 1.208.023 2.497.908 3.381l-.001-.001Zm10.228 5.985-8.107-8.107c-.126-.126-.176-.31-.13-.483.046-.172.18-.306.352-.353 5.882-1.536 12.408-.011 17.012 4.594 4.939 4.938 6.335 12.087 4.19 18.275-.577 1.629-.166 3.444 1.056 4.667 1.988 2.011 5.798 5.821 8.919 8.942 2.141 2.141 2.141 5.613 0 7.754 0 0-.001.001-.001.001-2.142 2.142-5.613 2.141-7.754 0l-9.195-9.194c-1.187-1.186-2.935-1.614-4.535-1.109-6.024 1.853-12.86.389-17.632-4.383-4.379-4.379-5.973-10.494-4.784-16.137.037-.173.166-.313.336-.363.17-.05.354-.004.48.122.001.002.003.003.005.005 2.36 2.338 5.895 5.873 7.724 7.701 1.108 1.109 2.714 1.56 4.239 1.192 1.394-.337 3.399-.822 4.86-1.175 1.716-.414 3.031-1.794 3.362-3.528l.841-4.394c.28-1.464-.184-2.973-1.238-4.027ZM2 49.695l6.325 0c.828 0 1.5-.672 1.5-1.5 0-.828-.672-1.5-1.5-1.5l-6.325 0c-.828 0-1.5.672-1.5 1.5 0 .828.672 1.5 1.5 1.5ZM46.759 16.338l0 16.274c0 .828.672 1.5 1.5 1.5.827 0 1.5-.672 1.5-1.5l0-16.274c0-.828-.673-1.5-1.5-1.5-.828 0-1.5.672-1.5 1.5Z" fill="#00c6ff" class="color000000 svgShape"></path>
  </g>
</svg>
